<?xml version="1.0" encoding="UTF-8"?>
<svg id="a" data-name="Слой 1" xmlns="http://www.w3.org/2000/svg" width="70" height="70" viewBox="0 0 150.21 150.21">
  <circle cx="75.11" cy="75.11" r="69.47" fill="#fff"/>
  <path d="M75.11,0C33.63,0,0,33.63,0,75.11s33.63,75.11,75.11,75.11,75.11-33.63,75.11-75.11S116.58,0,75.11,0Zm0,144.58c-38.31,0-69.47-31.17-69.47-69.47S36.8,5.63,75.11,5.63s69.47,31.16,69.47,69.47-31.17,69.47-69.47,69.47Z" fill="#0a813f"/>
  <g>
    <path d="M70.63,6.08c.17,4.15,.3,8.3,.51,12.45,.28,5.55,.61,11.1,.92,16.65,0,.17,.01,.33,.01,.5,.19,7.31,.35,14.63,.57,21.94,.06,1.9,.31,3.8,.43,5.7,.05,.81,0,1.63,0,2.3-1.36,.86-1.87,.18-2.36-.71-1.4-2.55-2.86-5.07-4.24-7.63-4.21-7.84-8.38-15.7-12.6-23.54-3.15-5.86-6.35-11.7-9.49-17.56-.42-.78-.59-1.69-.87-2.55,3.43-2.28,7.3-3.56,11.19-4.76,5.18-1.6,10.45-2.79,15.92-2.79Z" fill="#bfe6c5"/>
    <path d="M11.88,47.05c5.47,2.81,10.94,5.59,16.39,8.43,5.98,3.12,11.94,6.28,17.89,9.44,1.67,.89,3.32,1.84,4.92,3.16h-16.52v6.95c-9.74-.33-19.18-.66-28.62-.98-.06-9.45,1.83-18.47,5.93-27.01Z" fill="#b0dab6"/>
    <path d="M144.27,74.08c-7.15,.18-14.31,.33-21.46,.56-2.22,.07-4.43,.39-6.97,.62l-.3-6.51h-7.63v-5.14c1.4-.82,2.93-1.79,4.53-2.65,7.85-4.21,15.73-8.38,23.59-12.57,.81-.43,1.58-.92,2.37-1.38,3.95,8.59,6.01,17.59,5.87,27.06Z" fill="#d4f7d8"/>
    <path d="M134.57,39.56c-.78,.25-1.64,.36-2.31,.78-7.38,4.65-14.72,9.34-22.08,14.02-.67,.43-1.38,.8-2.41,1.4-.24-1.85-1.2-23.69-1.2-23.69,0,0,.44-.79,1.18-1.97,2.41-3.87,4.68-7.82,7.01-11.74,8.2,5.58,14.77,12.68,19.81,21.2Z" fill="#d4f7d8"/>
    <path d="M6.31,82.77c.16-.03,.33-.07,.49-.07,8.56-.2,17.11-.41,25.67-.6,.57-.01,1.13,.09,1.88,.15v15.64c-3.56,1.89-7.2,3.87-10.88,5.77-3.02,1.55-6.08,3.01-9.13,4.51-3.37-5.41-5.35-11.38-6.79-17.53-.6-2.57-.84-5.23-1.24-7.85Z" fill="#b0dab6"/>
    <path d="M135.93,108.2c-6.68-3.55-13.35-7.09-20.1-10.68v-15.33c9.42-.38,18.76,.73,28.1,.55-.87,9.05-3.51,17.55-8,25.47Z" fill="#d4f7d8"/>
    <path d="M94.62,37.64c-2.5,4.89-8.93,17.21-11.44,22.09-.88,1.7-1.77,3.4-2.68,5.08-.59,1.08-.61,1.07-2.29,1.02-.04-.79-.12-1.6-.1-2.41,.17-8.9,.34-17.81,.55-26.71,.13-5.65,.32-11.3,.49-16.96,.14-4.57,.3-9.14,.45-13.71,4,.05,7.93,.62,11.77,1.78,5.51,1.37,10.89,3.07,15.84,5.94-1.33,2.69-5.13,9.84-5.13,9.84,0,0-4.97-.06-6.76-.06-.23,3-.69,14.1-.69,14.1Z" fill="#d4f7d8"/>
    <path d="M36.15,69.84h58.33c.22-4.92,.43-9.55,.64-14.34h10.9c.54,13.77,1.09,27.56,1.64,41.53h-14.24c.28-7.5,.56-15.03,.84-22.72H41.08v28.82h-4.93v-33.3Z" fill="#26598a"/>
    <path d="M44.63,103.27v-4.35H109.22v-29.23h5.12v33.58H44.63Z" fill="#26598a"/>
    <path d="M46.12,35.54c2.44,3.76,4.92,7.5,7.32,11.29,3.92,6.18,7.81,12.38,11.69,18.58,.47,.75,.86,1.56,1.37,2.51-1.95,.31-3.44,.22-4.98-.78-5.79-3.74-11.67-7.35-17.51-11.01-2.14-1.26-4.29-2.48-6.4-3.78-7.2-4.42-14.39-8.86-21.58-13.29,2.05-2.92,3.95-5.96,6.19-8.73,3.77-4.65,8.11-8.74,13.23-11.93l10.67,17.14Z" fill="#bfe6c5"/>
    <path d="M104.96,31.62h-8.28v-6.75h8.28v6.75Z" fill="#e31e24"/>
    <path d="M93.82,53.86c0,3.56-.54,7.3-.54,10.9-2.73,1.92-4.42,3.88-8.72,3.02,2.95-4.79,5.83-9.47,8.71-14.15,.14,.07,.4,.16,.55,.23Z" fill="#bfe6c5"/>
    <path d="M104.95,45.9h-9.1v-5.13h9.1v5.13Z" fill="#e31e24"/>
    <path d="M80.69,79.39v1.5h-10.97v-1.5c3.67,0,7.23,0,10.97,0Z" fill="#26598a"/>
    <path d="M42.77,83.91v-1.47c3.59,0,7.37,0,11.06,0v1.47c-3.67,0-7.24,0-11.06,0Z" fill="#26598a"/>
    <path d="M80.66,82.43v1.53c-3.61,0-7.22,0-10.94,0v-1.53c3.63,0,7.11,0,10.94,0Z" fill="#26598a"/>
    <path d="M53.83,79.38v1.56c-3.63,0-7.39,0-11.06,0v-1.56c3.66,0,7.22,0,11.06,0Z" fill="#26598a"/>
    <path d="M67.27,79.35v1.53c-3.59,0-7.43,0-11.13,0-.03-.48,.02-.93-.02-1.53,3.64,0,7.39,0,11.15,0Z" fill="#26598a"/>
    <path d="M56.12,83.94v-1.52c3.6,0,7.46,0,11.15,0v1.52c-3.63,0-7.38,0-11.15,0Z" fill="#26598a"/>
    <path d="M67.27,76.11v1.37h-11.12v-1.37h11.12Z" fill="#26598a"/>
    <path d="M53.83,76.18c-.01,.54,0,.85,0,1.31-3.58,0-7.34,0-11.05,0v-1.31c3.67,0,7.23,0,11.05,0Z" fill="#26598a"/>
    <path d="M80.69,76.12v1.34c-3.62,0-7.27-.01-10.97-.01v-1.34c3.6,0,7.19,.01,10.97,.01Z" fill="#26598a"/>
  </g>
  <g>
    <path d="M40.07,116.51l4.36-6.25h1v14.43h-2.86v-6.41l-2.33,3.21h-.31l-2.31-3.21v6.41h-2.86v-14.43h1.03l4.28,6.25Z" fill="#26598a"/>
    <path d="M57.31,110.3v14.39h-2.86v-10.99h-3.37v10.99h-2.86v-14.39h9.09Z" fill="#26598a"/>
    <path d="M69.23,124.69v-5.49c-.11,0-.31-.03-.58-.08l-2.39,5.57h-3.09v-.58l2.94-6.33c-.34-.29-.64-.6-.88-.92-.24-.33-.44-.7-.59-1.12-.15-.42-.27-.79-.36-1.13-.09-.34-.15-.77-.19-1.32-.04-.54-.06-.97-.06-1.28,0-.31,0-.79,0-1.42v-.29h2.86v1.45c0,.24,.02,.57,.05,.98,.03,.41,.08,.73,.13,.95,.06,.22,.14,.47,.26,.76,.11,.29,.25,.51,.41,.66,.16,.15,.37,.29,.62,.41,.26,.12,.55,.2,.88,.23v-5.43h2.84v5.43c.23-.01,.44-.05,.64-.11,.2-.06,.37-.14,.52-.24,.15-.1,.28-.21,.4-.35,.12-.14,.22-.28,.3-.44,.08-.16,.16-.33,.22-.51s.11-.38,.14-.6c.03-.21,.06-.43,.09-.65s.04-.45,.05-.68c0-.23,.01-.47,.02-.72,0-.25,0-.49,0-.74v-.39h2.86v.29c0,.63,0,1.11,0,1.43,0,.32-.03,.75-.06,1.28-.04,.53-.1,.97-.19,1.3-.09,.34-.21,.71-.36,1.13-.15,.42-.35,.79-.59,1.12-.25,.33-.54,.64-.88,.92l2.94,6.33v.58h-3.09l-2.39-5.57c-.27,.05-.46,.08-.58,.08v5.49h-2.84Z" fill="#26598a"/>
    <path d="M84.17,113.49c-1.22,0-2.01,.71-2.39,2.12h-2.75c.2-1.79,.79-3.15,1.78-4.08s2.11-1.39,3.36-1.39c.71,0,1.39,.16,2.05,.47,.66,.32,1.25,.77,1.79,1.36s.97,1.36,1.29,2.32c.32,.96,.48,2.03,.48,3.21s-.16,2.25-.48,3.21c-.32,.96-.75,1.73-1.29,2.32-.54,.59-1.13,1.04-1.79,1.35-.66,.31-1.34,.46-2.05,.46-.82,0-1.59-.18-2.3-.54s-1.33-.99-1.88-1.87c-.55-.88-.88-1.97-1.01-3.26h2.75c.15,.75,.43,1.33,.87,1.73s.96,.6,1.57,.6c.6-.01,1.13-.24,1.59-.68s.78-1.01,.98-1.73h-3.54v-3.1h3.59c-.18-.77-.5-1.37-.97-1.82s-1.02-.67-1.64-.67Z" fill="#26598a"/>
    <path d="M94.72,124.69h-2.84v-14.39h2.84v5.45h.2c.38,0,.71-.05,.99-.16,.29-.11,.52-.24,.7-.38,.18-.14,.34-.37,.47-.67,.13-.3,.23-.56,.29-.77,.06-.21,.11-.54,.14-.98s.05-.77,.05-1.01c0-.23,0-.6,0-1.11v-.37h2.87c0,1.89-.07,3.22-.2,3.99-.27,1.49-.91,2.66-1.91,3.49l2.97,6.33v.58h-3.11l-2.41-5.57c-.25,.05-.61,.08-1.08,.08v5.49Z" fill="#26598a"/>
    <path d="M102.53,118.54v-2.14h4.04v2.14h-4.04Z" fill="#26598a"/>
    <path d="M112.06,124.64c-.98,0-1.75-.18-2.3-.55-.56-.37-.96-.88-1.19-1.54-.24-.66-.35-1.42-.35-2.29v-.5h2.88v.5c0,.46,.03,.83,.09,1.12,.06,.29,.16,.5,.31,.63,.15,.13,.36,.2,.62,.2s.46-.07,.59-.21c.13-.14,.22-.35,.27-.62s.07-.62,.07-1.04c0-.69-.09-1.22-.28-1.58-.19-.36-.58-.55-1.18-.56h-.54v-1.99h.47c.61,0,1.02-.17,1.23-.5,.21-.33,.31-.85,.31-1.55,0-.54-.07-.96-.22-1.24-.14-.29-.41-.43-.8-.43s-.63,.16-.75,.48c-.12,.32-.18,.74-.18,1.24v.73h-2.88v-.85c0-.84,.15-1.55,.46-2.13s.74-1.02,1.31-1.32c.57-.3,1.25-.45,2.04-.45s1.5,.14,2.07,.43c.58,.29,1.02,.71,1.33,1.27,.31,.56,.47,1.25,.47,2.08s-.17,1.5-.5,2.05c-.33,.55-.74,.89-1.21,1.02,.32,.12,.61,.3,.87,.55,.26,.25,.46,.6,.61,1.03s.22,.98,.22,1.65c0,.85-.12,1.61-.37,2.26-.25,.66-.65,1.17-1.22,1.54-.56,.37-1.31,.56-2.24,.56Z" fill="#26598a"/>
  </g>
</svg>