<svg width="300" height="300" xmlns="http://www.w3.org/2000/svg">
  <g stroke="null" id="svg_33">
   <path stroke="null" id="svg_1" fill="#0a813f" d="m149.958346,1.113338c-82.212088,0 -148.875008,66.66292 -148.875008,148.875008s66.66292,148.875008 148.875008,148.875008s148.875008,-66.66292 148.875008,-148.875008s-66.66292,-148.875008 -148.875008,-148.875008zm0,286.58439c-75.926254,0 -137.709382,-61.783128 -137.709382,-137.709382s61.783128,-137.709382 137.709382,-137.709382s137.709382,61.783128 137.709382,137.709382s-61.783128,137.709382 -137.709382,137.709382z"/>
   <g stroke="null" id="svg_2">
    <path stroke="null" id="svg_3" fill="#bfe6c5" d="m141.067199,13.147401c0.330833,8.22948 0.620313,16.458959 0.9925,24.688439c0.537604,11.000209 1.199271,22.000418 1.819583,33.000627c0,0.330833 0,0.661667 0,0.9925c0.372188,14.515313 0.703021,28.989272 1.157917,43.504586c0.124063,3.763229 0.620313,7.526459 0.868438,11.289688c0.124063,1.612813 0,3.225625 0,4.548959c-2.688021,1.695521 -3.721875,0.330833 -4.673021,-1.406042c-2.770729,-5.045209 -5.665521,-10.049063 -8.394896,-15.135626c-8.353542,-15.549167 -16.624376,-31.139689 -24.977918,-46.647502c-6.24448,-11.620521 -12.613022,-23.199689 -18.816147,-34.82021c-0.827083,-1.530104 -1.157917,-3.349688 -1.736875,-5.045209c6.823438,-4.507604 14.473959,-7.071563 22.165835,-9.428751c10.255834,-3.184271 20.718439,-5.541459 31.553231,-5.541459l0.041354,0z"/>
    <path stroke="null" id="svg_4" fill="#b0dab6" d="m24.61386,94.366989c10.834792,5.582813 21.710939,11.082917 32.504377,16.707084c11.868646,6.161771 23.654585,12.447605 35.481877,18.733439c3.308334,1.778229 6.575313,3.639167 9.759584,6.285834l-32.752502,0l0,13.770938c-19.312397,-0.661667 -38.004481,-1.323333 -56.73792,-1.943646c-0.124063,-18.733439 3.639167,-36.639794 11.744584,-53.553649z"/>
    <path stroke="null" id="svg_5" fill="#d4f7d8" d="m287.047416,147.961992c-14.18448,0.372188 -28.36896,0.661667 -42.55344,1.116563c-4.383542,0.165417 -8.808438,0.785729 -13.812292,1.240625l-0.578958,-12.902501l-15.135626,0l0,-10.173126c2.770729,-1.612813 5.830938,-3.556459 8.973855,-5.251979c15.549167,-8.353542 31.181043,-16.624376 46.771565,-24.936564c1.612813,-0.868438 3.142917,-1.819583 4.714375,-2.729375c7.857292,17.037918 11.910001,34.861564 11.620521,53.636357z"/>
    <path stroke="null" id="svg_6" fill="#d4f7d8" d="m267.817727,79.520842c-1.530104,0.49625 -3.266979,0.703021 -4.590313,1.571458c-14.639376,9.22198 -29.196043,18.526668 -43.794065,27.790001c-1.323333,0.827083 -2.729375,1.571458 -4.755729,2.770729c-0.454896,-3.680521 -2.398542,-46.978336 -2.398542,-46.978336c0,0 0.868438,-1.571458 2.357188,-3.928646c4.755729,-7.650521 9.263334,-15.507813 13.895001,-23.282397c16.252188,11.041563 29.278752,25.143335 39.28646,42.015836l0,0.041354z"/>
    <path stroke="null" id="svg_7" fill="#b0dab6" d="m13.613651,165.20668c0.330833,-0.041354 0.661667,-0.124063 0.9925,-0.165417c16.955209,-0.413542 33.910418,-0.827083 50.906982,-1.199271c1.116563,0 2.233125,0.165417 3.721875,0.289479l0,30.974272c-7.071563,3.763229 -14.267188,7.650521 -21.586876,11.413751c-5.996354,3.060208 -12.075417,5.955 -18.113126,8.9325c-6.699375,-10.752084 -10.628021,-22.579376 -13.440105,-34.737502c-1.199271,-5.086563 -1.654167,-10.379896 -2.48125,-15.549167l0,0.041354z"/>
    <path stroke="null" id="svg_8" fill="#d4f7d8" d="m270.505748,215.576058l-39.865419,-21.173334l0,-30.395314c18.65073,-0.744375 37.177398,1.447396 55.704065,1.075208c-1.736875,17.947709 -6.9475,34.778856 -15.880001,50.49344l0.041354,0z"/>
    <path stroke="null" id="svg_9" fill="#d4f7d8" d="m188.624494,75.716259c-4.9625,9.676876 -17.699584,34.117189 -22.703439,43.794065c-1.736875,3.391042 -3.515104,6.74073 -5.293334,10.049063c-1.157917,2.150417 -1.199271,2.109063 -4.548959,2.026354c-0.082708,-1.571458 -0.248125,-3.184271 -0.206771,-4.797084c0.330833,-17.65823 0.661667,-35.275106 1.075208,-52.933336c0.248125,-11.20698 0.620313,-22.41396 0.9925,-33.620939c0.289479,-9.056563 0.578958,-18.113126 0.909792,-27.169689c7.94,0.124063 15.714584,1.240625 23.323751,3.515104c10.917501,2.729375 21.586876,6.079063 31.387814,11.744584c-2.646667,5.334688 -10.173126,19.519168 -10.173126,19.519168c0,0 -9.842292,-0.124063 -13.398751,-0.124063c-0.454896,5.955 -1.364688,27.955418 -1.364688,27.955418l0,0.041354z"/>
    <path stroke="null" id="svg_10" fill="#26598a" d="m72.750112,139.567095l115.626256,0l1.281979,-28.410314l21.586876,0l3.266979,82.33615l-28.244897,0c0.537604,-14.887501 1.116563,-29.775002 1.654167,-45.03469l-105.411776,0l0,57.110107l-9.759584,0l0,-66.001254z"/>
    <path stroke="null" id="svg_11" fill="#26598a" d="m89.539905,205.816474l0,-8.643021l128.032507,0l0,-57.937191l10.173126,0l0,66.580212l-138.205632,0z"/>
    <path stroke="null" id="svg_12" fill="#bfe6c5" d="m92.476051,71.580842c4.838438,7.44375 9.759584,14.887501 14.515313,22.372605c7.774584,12.240834 15.466459,24.523022 23.158335,36.846564c0.951146,1.48875 1.695521,3.101563 2.729375,4.9625c-3.845938,0.620313 -6.823438,0.413542 -9.883646,-1.530104c-11.496459,-7.402396 -23.11698,-14.556667 -34.737502,-21.835001c-4.218125,-2.48125 -8.518959,-4.921146 -12.69573,-7.485105c-14.267188,-8.767084 -28.534377,-17.575522 -42.760211,-26.342606c4.052709,-5.789584 7.815938,-11.827292 12.240834,-17.286043c7.485105,-9.22198 16.086772,-17.327397 26.218543,-23.654585l21.173334,33.993127l0.041354,-0.041354z"/>
    <path stroke="null" id="svg_13" fill="#e31e24" d="m209.136161,63.764904l-16.417605,0l0,-13.398751l16.417605,0l0,13.398751z"/>
    <path stroke="null" id="svg_14" fill="#bfe6c5" d="m187.053035,107.889802c0,7.030209 -1.075208,14.473959 -1.075208,21.62823c-5.417396,3.804584 -8.767084,7.691875 -17.286043,5.996354l17.286043,-28.038126c0.289479,0.124063 0.785729,0.330833 1.075208,0.454896l0,-0.041354z"/>
    <path stroke="null" id="svg_15" fill="#e31e24" d="m209.136161,92.092509l-18.030418,0l0,-10.173126l18.030418,0l0,10.173126z"/>
    <path stroke="null" id="svg_16" fill="#26598a" d="m161.041263,158.46595l0,2.9775l-21.752293,0l0,-2.9775c7.278334,0 14.349897,0 21.752293,0z"/>
    <path stroke="null" id="svg_17" fill="#26598a" d="m85.859384,167.439805l0,-2.936146c7.112917,0 14.598022,0 21.91771,0l0,2.936146c-7.278334,0 -14.349897,0 -21.91771,0z"/>
    <path stroke="null" id="svg_18" fill="#26598a" d="m160.958555,164.503659l0,3.018854c-7.154271,0 -14.308542,0 -21.669584,0l0,-3.018854c7.195625,0 14.101772,0 21.669584,0z"/>
    <path stroke="null" id="svg_19" fill="#26598a" d="m107.777094,158.46595l0,3.101563c-7.195625,0 -14.639376,0 -21.91771,0l0,-3.101563c7.23698,0 14.308542,0 21.91771,0z"/>
    <path stroke="null" id="svg_20" fill="#26598a" d="m134.409178,158.383242l0,3.060208c-7.112917,0 -14.722084,0 -22.083126,0c-0.082708,-0.951146 0.041354,-1.819583 0,-3.060208c7.195625,0 14.639376,0 22.083126,0z"/>
    <path stroke="null" id="svg_21" fill="#26598a" d="m112.326052,167.522513l0,-3.018854c7.154271,0 14.804792,0 22.083126,0l0,3.018854c-7.195625,0 -14.639376,0 -22.083126,0z"/>
    <path stroke="null" id="svg_22" fill="#26598a" d="m134.409178,151.973346l0,2.729375l-22.041772,0l0,-2.729375l22.041772,0z"/>
    <path stroke="null" id="svg_23" fill="#26598a" d="m107.777094,152.138763c0,1.075208 0,1.695521 0,2.605313c-7.112917,0 -14.556667,0 -21.91771,0l0,-2.605313c7.278334,0 14.349897,0 21.91771,0z"/>
    <path stroke="null" id="svg_24" fill="#26598a" d="m161.041263,152.0147l0,2.646667c-7.154271,0 -14.432605,0 -21.752293,0l0,-2.646667c7.154271,0 14.267188,0 21.752293,0z"/>
   </g>
   <g stroke="null" id="svg_25">
    <path stroke="null" id="svg_26" fill="#26598a" d="m80.524696,232.076371l8.643021,-12.364896l1.985,0l0,28.617085l-5.665521,0l0,-12.69573l-4.631667,6.368542l-0.620313,0l-4.590313,-6.368542l0,12.69573l-5.665521,0l0,-28.617085l2.026354,0l8.477605,12.364896l0.041354,0z"/>
    <path stroke="null" id="svg_27" fill="#26598a" d="m114.68324,219.752829l0,28.534377l-5.665521,0l0,-21.793647l-6.699375,0l0,21.793647l-5.665521,0l0,-28.534377l18.030418,0z"/>
    <path stroke="null" id="svg_28" fill="#26598a" d="m138.29647,248.287205l0,-10.876146c-0.206771,0 -0.620313,-0.041354 -1.157917,-0.165417l-4.755729,11.041563l-6.120417,0l0,-1.157917l5.830938,-12.530313c-0.703021,-0.578958 -1.281979,-1.199271 -1.736875,-1.819583c-0.49625,-0.661667 -0.868438,-1.406042 -1.157917,-2.233125s-0.537604,-1.571458 -0.703021,-2.233125c-0.165417,-0.661667 -0.289479,-1.530104 -0.372188,-2.605313s-0.124063,-1.902292 -0.124063,-2.563958c0,-0.620313 0,-1.571458 0,-2.812083l0,-0.578958l5.665521,0l0,2.853438c0,0.49625 0,1.116563 0.082708,1.943646c0.082708,0.827083 0.165417,1.447396 0.248125,1.860938c0.124063,0.454896 0.289479,0.951146 0.49625,1.530104c0.248125,0.578958 0.49625,0.9925 0.827083,1.281979c0.330833,0.289479 0.744375,0.578958 1.240625,0.827083c0.49625,0.248125 1.075208,0.413542 1.736875,0.454896l0,-10.752084l5.624167,0l0,10.752084c0.454896,0 0.868438,-0.082708 1.281979,-0.206771c0.372188,-0.124063 0.744375,-0.289479 1.033854,-0.454896s0.537604,-0.413542 0.785729,-0.703021c0.248125,-0.289479 0.454896,-0.578958 0.620313,-0.868438c0.165417,-0.330833 0.289479,-0.661667 0.413542,-1.033854c0.124063,-0.372188 0.206771,-0.744375 0.289479,-1.199271c0.041354,-0.413542 0.124063,-0.868438 0.165417,-1.281979c0.041354,-0.454896 0.082708,-0.868438 0.082708,-1.364688s0,-0.951146 0,-1.406042s0,-0.9925 0,-1.447396l0,-0.785729l5.665521,0l0,0.578958c0,1.240625 0,2.191771 0,2.812083c0,0.661667 -0.041354,1.48875 -0.124063,2.563958s-0.206771,1.902292 -0.372188,2.563958c-0.165417,0.661667 -0.413542,1.406042 -0.703021,2.233125s-0.703021,1.571458 -1.157917,2.233125c-0.49625,0.661667 -1.075208,1.281979 -1.736875,1.819583l5.830938,12.530313l0,1.157917l-6.120417,0l-4.755729,-11.041563c-0.537604,0.124063 -0.909792,0.165417 -1.157917,0.165417l0,10.876146l-5.624167,0l-0.041354,0.041354z"/>
    <path stroke="null" id="svg_29" fill="#26598a" d="m167.947409,226.080017c-2.398542,0 -4.011354,1.406042 -4.714375,4.176771l-5.45875,0c0.372188,-3.556459 1.571458,-6.24448 3.515104,-8.105417c1.943646,-1.819583 4.176771,-2.729375 6.658021,-2.729375c1.406042,0 2.770729,0.330833 4.052709,0.951146c1.281979,0.620313 2.48125,1.530104 3.556459,2.688021c1.075208,1.157917 1.902292,2.688021 2.563958,4.590313c0.620313,1.902292 0.951146,4.011354 0.951146,6.368542s-0.330833,4.46625 -0.951146,6.368542c-0.661667,1.902292 -1.48875,3.432396 -2.563958,4.590313c-1.075208,1.157917 -2.233125,2.067708 -3.556459,2.688021c-1.281979,0.620313 -2.646667,0.909792 -4.052709,0.909792c-1.612813,0 -3.142917,-0.372188 -4.548959,-1.075208c-1.406042,-0.703021 -2.646667,-1.943646 -3.721875,-3.721875c-1.075208,-1.736875 -1.736875,-3.887292 -1.985,-6.45125l5.45875,0c0.289479,1.48875 0.868438,2.646667 1.736875,3.432396s1.902292,1.199271 3.101563,1.199271c1.199271,0 2.233125,-0.454896 3.142917,-1.323333c0.909792,-0.868438 1.530104,-2.026354 1.943646,-3.432396l-7.030209,0l0,-6.161771l7.112917,0c-0.330833,-1.530104 -0.9925,-2.729375 -1.902292,-3.597813c-0.909792,-0.868438 -2.026354,-1.323333 -3.266979,-1.323333l-0.041354,-0.041354z"/>
    <path stroke="null" id="svg_30" fill="#26598a" d="m188.831264,248.287205l-5.624167,0l0,-28.534377l5.624167,0l0,10.793438l0.413542,0c0.744375,0 1.406042,-0.124063 1.985,-0.330833c0.578958,-0.206771 1.033854,-0.454896 1.406042,-0.744375c0.372188,-0.289479 0.661667,-0.744375 0.909792,-1.323333c0.248125,-0.578958 0.454896,-1.116563 0.578958,-1.530104c0.124063,-0.413542 0.206771,-1.075208 0.289479,-1.943646c0.082708,-0.868438 0.082708,-1.530104 0.124063,-1.985c0,-0.454896 0,-1.199271 0,-2.191771l0,-0.744375l5.706875,0c0,3.763229 -0.124063,6.368542 -0.413542,7.898646c-0.537604,2.9775 -1.778229,5.251979 -3.763229,6.906146l5.872292,12.530313l0,1.157917l-6.161771,0l-4.755729,-11.041563c-0.49625,0.124063 -1.199271,0.165417 -2.150417,0.165417l0,10.876146l-0.041354,0.041354z"/>
    <path stroke="null" id="svg_31" fill="#26598a" d="m204.297724,236.087725l0,-4.218125l8.022709,0l0,4.218125l-8.022709,0z"/>
    <path stroke="null" id="svg_32" fill="#26598a" d="m223.196579,248.163143c-1.943646,0 -3.47375,-0.372188 -4.548959,-1.075208s-1.902292,-1.736875 -2.357188,-3.060208c-0.454896,-1.323333 -0.703021,-2.812083 -0.703021,-4.548959l0,-0.9925l5.706875,0l0,0.9925c0,0.909792 0.041354,1.654167 0.165417,2.233125c0.124063,0.578958 0.330833,0.9925 0.620313,1.240625c0.289479,0.248125 0.703021,0.372188 1.240625,0.372188s0.909792,-0.124063 1.199271,-0.413542s0.454896,-0.703021 0.537604,-1.240625c0.082708,-0.537604 0.124063,-1.240625 0.124063,-2.067708c0,-1.364688 -0.165417,-2.398542 -0.578958,-3.142917c-0.372188,-0.703021 -1.157917,-1.075208 -2.357188,-1.116563l-1.075208,0l0,-3.928646l0.909792,0c1.199271,0 2.026354,-0.330833 2.439896,-0.9925c0.413542,-0.661667 0.620313,-1.695521 0.620313,-3.101563c0,-1.075208 -0.124063,-1.902292 -0.413542,-2.48125c-0.289479,-0.578958 -0.827083,-0.868438 -1.571458,-0.868438s-1.240625,0.330833 -1.48875,0.951146c-0.248125,0.661667 -0.372188,1.447396 -0.372188,2.48125l0,1.447396l-5.706875,0l0,-1.695521c0,-1.654167 0.289479,-3.060208 0.909792,-4.218125c0.620313,-1.157917 1.48875,-2.026354 2.605313,-2.605313c1.116563,-0.578958 2.48125,-0.909792 4.052709,-0.909792s2.9775,0.289479 4.094063,0.868438c1.157917,0.578958 2.026354,1.406042 2.646667,2.522604c0.620313,1.116563 0.909792,2.48125 0.909792,4.135417s-0.330833,2.9775 -0.9925,4.052709c-0.661667,1.075208 -1.447396,1.778229 -2.398542,2.026354c0.620313,0.248125 1.199271,0.578958 1.736875,1.075208c0.49625,0.49625 0.909792,1.199271 1.199271,2.026354c0.289479,0.868438 0.454896,1.943646 0.454896,3.266979c0,1.695521 -0.248125,3.184271 -0.744375,4.46625c-0.49625,1.281979 -1.281979,2.315833 -2.398542,3.060208c-1.116563,0.744375 -2.605313,1.116563 -4.46625,1.116563l0,0.124063z"/>
   </g>
  </g>
</svg>