<?xml version="1.0" encoding="UTF-8"?>
<!DOCTYPE svg PUBLIC "-//W3C//DTD SVG 1.1//EN" "http://www.w3.org/Graphics/SVG/1.1/DTD/svg11.dtd">
<svg xmlns="http://www.w3.org/2000/svg" version="1.1" width="300px" height="300px" style="shape-rendering:geometricPrecision; text-rendering:geometricPrecision; image-rendering:optimizeQuality; fill-rule:evenodd; clip-rule:evenodd" xmlns:xlink="http://www.w3.org/1999/xlink">
<g><path style="opacity:0.977" fill="#0a853f" d="M 131.5,-0.5 C 142.5,-0.5 153.5,-0.5 164.5,-0.5C 164.5,3.5 164.5,7.5 164.5,11.5C 162.5,11.5 160.5,11.5 158.5,11.5C 152.833,11.5 147.167,11.5 141.5,11.5C 122.326,12.868 103.993,17.5347 86.5,25.5C 86.5,21.8333 86.5,18.1667 86.5,14.5C 85.5,14.5 84.5,14.5 83.5,14.5C 98.738,7.02448 114.738,2.02448 131.5,-0.5 Z"/></g>
<g><path style="opacity:0.966" fill="#0a7739" d="M 164.5,-0.5 C 165.5,-0.5 166.5,-0.5 167.5,-0.5C 185.043,2.05325 201.71,7.38658 217.5,15.5C 216.833,19.5 216.167,23.5 215.5,27.5C 215.167,27.5 214.833,27.5 214.5,27.5C 198.885,19.1849 182.218,13.8516 164.5,11.5C 164.5,7.5 164.5,3.5 164.5,-0.5 Z"/></g>
<g><path style="opacity:1" fill="#fbfcfc" d="M 141.5,11.5 C 147.167,11.5 152.833,11.5 158.5,11.5C 156.959,51.487 156.125,91.487 156,131.5C 157,132.833 158,132.833 159,131.5C 168.667,113.167 178.333,94.8333 188,76.5C 188.37,66.4871 188.87,56.4871 189.5,46.5C 194.544,46.8275 199.544,46.4941 204.5,45.5C 207.354,39.1153 210.687,33.1153 214.5,27.5C 214.833,27.5 215.167,27.5 215.5,27.5C 220.109,30.11 224.442,33.11 228.5,36.5C 223.587,45.2628 218.42,53.9295 213,62.5C 213.055,78.823 213.555,95.1564 214.5,111.5C 229.968,101.864 245.301,92.0305 260.5,82C 263.11,80.5186 265.777,79.3519 268.5,78.5C 271.358,82.8832 273.692,87.5499 275.5,92.5C 273.747,94.2225 271.747,95.7225 269.5,97C 251.5,106.667 233.5,116.333 215.5,126C 214.544,129.394 214.211,132.894 214.5,136.5C 219.833,136.5 225.167,136.5 230.5,136.5C 230.5,140.833 230.5,145.167 230.5,149.5C 249.479,148.311 268.479,147.644 287.5,147.5C 287.822,153.358 287.489,159.025 286.5,164.5C 267.831,164.255 249.165,163.922 230.5,163.5C 230.168,173.855 230.501,184.188 231.5,194.5C 244.724,201.608 257.724,208.941 270.5,216.5C 261.452,233.223 249.452,247.556 234.5,259.5C 213.449,274.517 190.116,283.851 164.5,287.5C 150.418,287.898 136.418,287.231 122.5,285.5C 95.046,279.668 71.3793,267.001 51.5,247.5C 42.6144,238.058 34.9477,227.725 28.5,216.5C 41.279,209.274 54.279,202.274 67.5,195.5C 68.4987,184.854 68.832,174.187 68.5,163.5C 49.8255,163.483 31.1588,163.816 12.5,164.5C 11.5111,159.025 11.1778,153.358 11.5,147.5C 30.4891,148.433 49.4891,149.1 68.5,149.5C 68.5,144.833 68.5,140.167 68.5,135.5C 79.8382,135.667 91.1716,135.5 102.5,135C 75.7864,121.313 49.4531,107.147 23.5,92.5C 25.3084,87.5499 27.6417,82.8832 30.5,78.5C 33.0163,78.7553 35.3496,79.5886 37.5,81C 65.8333,98.6667 94.1667,116.333 122.5,134C 125.753,135.656 129.087,135.823 132.5,134.5C 111.823,101.805 91.1559,69.1385 70.5,36.5C 74.6243,32.7191 79.2909,29.7191 84.5,27.5C 85.4584,27.9528 86.2917,28.6195 87,29.5C 105.255,63.0078 123.255,96.6745 141,130.5C 142.356,131.38 143.856,131.714 145.5,131.5C 143.929,91.5084 142.596,51.5084 141.5,11.5 Z"/></g>
<g><path style="opacity:1" fill="#c7edcc" d="M 158.5,11.5 C 160.5,11.5 162.5,11.5 164.5,11.5C 182.218,13.8516 198.885,19.1849 214.5,27.5C 210.687,33.1153 207.354,39.1153 204.5,45.5C 199.544,46.4941 194.544,46.8275 189.5,46.5C 188.87,56.4871 188.37,66.4871 188,76.5C 178.333,94.8333 168.667,113.167 159,131.5C 158,132.833 157,132.833 156,131.5C 156.125,91.487 156.959,51.487 158.5,11.5 Z"/></g>
<g><path style="opacity:1" fill="#bee5c3" d="M 141.5,11.5 C 142.596,51.5084 143.929,91.5084 145.5,131.5C 143.856,131.714 142.356,131.38 141,130.5C 123.255,96.6745 105.255,63.0078 87,29.5C 86.2917,28.6195 85.4584,27.9528 84.5,27.5C 85.1667,26.8333 85.8333,26.1667 86.5,25.5C 103.993,17.5347 122.326,12.868 141.5,11.5 Z"/></g>
<g><path style="opacity:1" fill="#b4deba" d="M 70.5,36.5 C 91.1559,69.1385 111.823,101.805 132.5,134.5C 129.087,135.823 125.753,135.656 122.5,134C 94.1667,116.333 65.8333,98.6667 37.5,81C 35.3496,79.5886 33.0163,78.7553 30.5,78.5C 40.7638,61.5697 54.0971,47.5697 70.5,36.5 Z"/></g>
<g><path style="opacity:1" fill="#d2f6d6" d="M 228.5,36.5 C 244.903,47.5697 258.236,61.5697 268.5,78.5C 265.777,79.3519 263.11,80.5186 260.5,82C 245.301,92.0305 229.968,101.864 214.5,111.5C 213.555,95.1564 213.055,78.823 213,62.5C 218.42,53.9295 223.587,45.2628 228.5,36.5 Z"/></g>
<g><path style="opacity:1" fill="#e32528" d="M 209.5,62.5 C 203.833,62.5 198.167,62.5 192.5,62.5C 192.5,60.8333 192.5,59.1667 192.5,57.5C 192.5,54.5 192.5,51.5 192.5,48.5C 198.167,48.5 203.833,48.5 209.5,48.5C 209.5,53.1667 209.5,57.8333 209.5,62.5 Z"/></g>
<g><path style="opacity:1" fill="#f0888b" d="M 192.5,57.5 C 192.5,59.1667 192.5,60.8333 192.5,62.5C 198.167,62.5 203.833,62.5 209.5,62.5C 203.69,63.4896 197.69,63.8229 191.5,63.5C 191.205,61.2646 191.539,59.2646 192.5,57.5 Z"/></g>
<g><path style="opacity:0.988" fill="#0c6a34" d="M 217.5,15.5 C 252.277,33.453 276.777,60.7864 291,97.5C 294.806,108.728 297.639,120.061 299.5,131.5C 299.5,143.5 299.5,155.5 299.5,167.5C 293.167,211.865 271.834,246.865 235.5,272.5C 234.515,268.366 234.182,264.032 234.5,259.5C 249.452,247.556 261.452,233.223 270.5,216.5C 279.635,200.422 284.969,183.088 286.5,164.5C 287.489,159.025 287.822,153.358 287.5,147.5C 288.054,128.063 284.054,109.73 275.5,92.5C 273.692,87.5499 271.358,82.8832 268.5,78.5C 258.236,61.5697 244.903,47.5697 228.5,36.5C 224.442,33.11 220.109,30.11 215.5,27.5C 216.167,23.5 216.833,19.5 217.5,15.5 Z"/></g>
<g><path style="opacity:1" fill="#e31f25" d="M 190.5,80.5 C 196.833,80.5 203.167,80.5 209.5,80.5C 209.5,84.1667 209.5,87.8333 209.5,91.5C 203.167,91.5 196.833,91.5 190.5,91.5C 190.5,87.8333 190.5,84.1667 190.5,80.5 Z"/></g>
<g><path style="opacity:0.976" fill="#079445" d="M 83.5,14.5 C 84.5,14.5 85.5,14.5 86.5,14.5C 86.5,18.1667 86.5,21.8333 86.5,25.5C 85.8333,26.1667 85.1667,26.8333 84.5,27.5C 79.2909,29.7191 74.6243,32.7191 70.5,36.5C 54.0971,47.5697 40.7638,61.5697 30.5,78.5C 27.6417,82.8832 25.3084,87.5499 23.5,92.5C 15.5772,109.871 11.5772,128.204 11.5,147.5C 11.1778,153.358 11.5111,159.025 12.5,164.5C 14.0485,183.136 19.3818,200.469 28.5,216.5C 34.9477,227.725 42.6144,238.058 51.5,247.5C 50.5128,252.305 50.1795,257.305 50.5,262.5C 21.7299,237.301 4.72993,205.635 -0.5,167.5C -0.5,155.5 -0.5,143.5 -0.5,131.5C 7.6772,78.1036 35.6772,39.1036 83.5,14.5 Z"/></g>
<g><path style="opacity:1" fill="#aed9b4" d="M 23.5,92.5 C 49.4531,107.147 75.7864,121.313 102.5,135C 91.1716,135.5 79.8382,135.667 68.5,135.5C 68.5,140.167 68.5,144.833 68.5,149.5C 49.4891,149.1 30.4891,148.433 11.5,147.5C 11.5772,128.204 15.5772,109.871 23.5,92.5 Z"/></g>
<g><path style="opacity:1" fill="#d7f9da" d="M 275.5,92.5 C 284.054,109.73 288.054,128.063 287.5,147.5C 268.479,147.644 249.479,148.311 230.5,149.5C 230.5,145.167 230.5,140.833 230.5,136.5C 225.167,136.5 219.833,136.5 214.5,136.5C 214.211,132.894 214.544,129.394 215.5,126C 233.5,116.333 251.5,106.667 269.5,97C 271.747,95.7225 273.747,94.2225 275.5,92.5 Z"/></g>
<g><path style="opacity:1" fill="#caeece" d="M 185.5,106.5 C 186.82,114.01 186.82,121.677 185.5,129.5C 182.696,131.138 180.029,132.971 177.5,135C 174.446,135.821 171.446,135.655 168.5,134.5C 174.194,125.149 179.86,115.816 185.5,106.5 Z"/></g>
<g><path style="opacity:1" fill="#265583" d="M 214.5,193.5 C 205.167,193.5 195.833,193.5 186.5,193.5C 186.5,190.833 186.5,188.167 186.5,185.5C 186.556,172.824 186.889,160.158 187.5,147.5C 179.5,147.5 171.5,147.5 163.5,147.5C 163.5,144.833 163.5,142.167 163.5,139.5C 171.833,139.5 180.167,139.5 188.5,139.5C 188.422,129.815 188.755,120.148 189.5,110.5C 196.833,110.5 204.167,110.5 211.5,110.5C 212.73,138.157 213.73,165.824 214.5,193.5 Z"/></g>
<g><path style="opacity:1" fill="#25507d" d="M 218.5,138.5 C 221.5,138.5 224.5,138.5 227.5,138.5C 227.5,160.833 227.5,183.167 227.5,205.5C 206.167,205.5 184.833,205.5 163.5,205.5C 163.5,202.833 163.5,200.167 163.5,197.5C 181.833,197.5 200.167,197.5 218.5,197.5C 218.5,177.833 218.5,158.167 218.5,138.5 Z"/></g>
<g><path style="opacity:1" fill="#1169af" d="M 97.5,139.5 C 97.5,142.167 97.5,144.833 97.5,147.5C 92.1667,147.5 86.8333,147.5 81.5,147.5C 80.503,166.659 80.1697,185.993 80.5,205.5C 77.5,205.5 74.5,205.5 71.5,205.5C 71.5,183.5 71.5,161.5 71.5,139.5C 80.1667,139.5 88.8333,139.5 97.5,139.5 Z"/></g>
<g><path style="opacity:1" fill="#1a5e99" d="M 97.5,139.5 C 119.5,139.5 141.5,139.5 163.5,139.5C 163.5,142.167 163.5,144.833 163.5,147.5C 141.5,147.5 119.5,147.5 97.5,147.5C 97.5,144.833 97.5,142.167 97.5,139.5 Z"/></g>
<g><path style="opacity:1" fill="#4d8cc2" d="M 81.5,147.5 C 81.5,167.167 81.5,186.833 81.5,206.5C 77.9581,206.813 74.6248,206.479 71.5,205.5C 74.5,205.5 77.5,205.5 80.5,205.5C 80.1697,185.993 80.503,166.659 81.5,147.5 Z"/></g>
<g><path style="opacity:1" fill="#1467aa" d="M 84.5,151.5 C 91.8333,151.5 99.1667,151.5 106.5,151.5C 106.5,152.5 106.5,153.5 106.5,154.5C 99.1667,154.5 91.8333,154.5 84.5,154.5C 84.5,153.5 84.5,152.5 84.5,151.5 Z"/></g>
<g><path style="opacity:1" fill="#17619f" d="M 111.5,151.5 C 118.833,151.5 126.167,151.5 133.5,151.5C 133.5,152.5 133.5,153.5 133.5,154.5C 126.167,154.5 118.833,154.5 111.5,154.5C 111.5,153.5 111.5,152.5 111.5,151.5 Z"/></g>
<g><path style="opacity:1" fill="#1c5c94" d="M 138.5,151.5 C 145.833,151.5 153.167,151.5 160.5,151.5C 160.5,152.5 160.5,153.5 160.5,154.5C 153.167,154.5 145.833,154.5 138.5,154.5C 138.5,153.5 138.5,152.5 138.5,151.5 Z"/></g>
<g><path style="opacity:1" fill="#3276b2" d="M 84.5,157.5 C 91.8333,157.5 99.1667,157.5 106.5,157.5C 106.5,158.833 106.5,160.167 106.5,161.5C 99.1667,161.5 91.8333,161.5 84.5,161.5C 84.5,160.167 84.5,158.833 84.5,157.5 Z"/></g>
<g><path style="opacity:1" fill="#3471a9" d="M 111.5,157.5 C 118.833,157.5 126.167,157.5 133.5,157.5C 133.5,158.833 133.5,160.167 133.5,161.5C 126.167,161.5 118.833,161.5 111.5,161.5C 111.5,160.167 111.5,158.833 111.5,157.5 Z"/></g>
<g><path style="opacity:1" fill="#5a88b2" d="M 138.5,157.5 C 146.167,157.5 153.833,157.5 161.5,157.5C 161.5,158.833 161.5,160.167 161.5,161.5C 153.833,161.5 146.167,161.5 138.5,161.5C 138.5,160.167 138.5,158.833 138.5,157.5 Z"/></g>
<g><path style="opacity:1" fill="#1c5b94" d="M 139.5,158.5 C 146.532,158.17 153.532,158.503 160.5,159.5C 157,159.833 153.5,160.167 150,160.5C 146.098,160.488 142.598,159.821 139.5,158.5 Z"/></g>
<g><path style="opacity:1" fill="#add8b4" d="M 28.5,216.5 C 19.3818,200.469 14.0485,183.136 12.5,164.5C 31.1588,163.816 49.8255,163.483 68.5,163.5C 68.832,174.187 68.4987,184.854 67.5,195.5C 54.279,202.274 41.279,209.274 28.5,216.5 Z"/></g>
<g><path style="opacity:1" fill="#3571a9" d="M 111.5,163.5 C 118.833,163.5 126.167,163.5 133.5,163.5C 133.5,164.833 133.5,166.167 133.5,167.5C 126.167,167.5 118.833,167.5 111.5,167.5C 111.5,166.167 111.5,164.833 111.5,163.5 Z"/></g>
<g><path style="opacity:1" fill="#d8fadb" d="M 286.5,164.5 C 284.969,183.088 279.635,200.422 270.5,216.5C 257.724,208.941 244.724,201.608 231.5,194.5C 230.501,184.188 230.168,173.855 230.5,163.5C 249.165,163.922 267.831,164.255 286.5,164.5 Z"/></g>
<g><path style="opacity:1" fill="#4e89bd" d="M 84.5,163.5 C 92.1667,163.5 99.8333,163.5 107.5,163.5C 107.5,164.833 107.5,166.167 107.5,167.5C 99.8333,167.5 92.1667,167.5 84.5,167.5C 84.5,166.167 84.5,164.833 84.5,163.5 Z"/></g>
<g><path style="opacity:1" fill="#1465a8" d="M 85.5,164.5 C 92.5316,164.17 99.5316,164.503 106.5,165.5C 103,165.833 99.5,166.167 96,166.5C 92.0982,166.488 88.5982,165.821 85.5,164.5 Z"/></g>
<g><path style="opacity:1" fill="#5382ae" d="M 138.5,163.5 C 146.167,163.5 153.833,163.5 161.5,163.5C 161.5,164.833 161.5,166.167 161.5,167.5C 153.833,167.5 146.167,167.5 138.5,167.5C 138.5,166.167 138.5,164.833 138.5,163.5 Z"/></g>
<g><path style="opacity:1" fill="#1c5b94" d="M 139.5,164.5 C 146.532,164.17 153.532,164.503 160.5,165.5C 157,165.833 153.5,166.167 150,166.5C 146.098,166.488 142.598,165.821 139.5,164.5 Z"/></g>
<g><path style="opacity:1" fill="#beccda" d="M 186.5,185.5 C 186.5,188.167 186.5,190.833 186.5,193.5C 195.833,193.5 205.167,193.5 214.5,193.5C 205.014,194.494 195.348,194.827 185.5,194.5C 185.19,191.287 185.523,188.287 186.5,185.5 Z"/></g>
<g><path style="opacity:1" fill="#85a3c0" d="M 218.5,138.5 C 218.5,158.167 218.5,177.833 218.5,197.5C 200.167,197.5 181.833,197.5 163.5,197.5C 138.5,197.5 113.5,197.5 88.5,197.5C 131.33,196.501 174.33,196.168 217.5,196.5C 217.17,176.993 217.503,157.659 218.5,138.5 Z"/></g>
<g><path style="opacity:1" fill="#1a5e99" d="M 88.5,197.5 C 113.5,197.5 138.5,197.5 163.5,197.5C 163.5,200.167 163.5,202.833 163.5,205.5C 138.5,205.5 113.5,205.5 88.5,205.5C 88.5,202.833 88.5,200.167 88.5,197.5 Z"/></g>
<g><path style="opacity:1" fill="#809db9" d="M 227.5,138.5 C 228.497,160.994 228.831,183.661 228.5,206.5C 181.664,206.832 134.997,206.499 88.5,205.5C 113.5,205.5 138.5,205.5 163.5,205.5C 184.833,205.5 206.167,205.5 227.5,205.5C 227.5,183.167 227.5,160.833 227.5,138.5 Z"/></g>
<g><path style="opacity:1" fill="#5b97c9" d="M 79.5,219.5 C 76.1667,219.5 72.8333,219.5 69.5,219.5C 69.5,229.167 69.5,238.833 69.5,248.5C 71.5,248.5 73.5,248.5 75.5,248.5C 73.3926,249.468 71.0593,249.802 68.5,249.5C 68.5,239.167 68.5,228.833 68.5,218.5C 72.3714,218.185 76.0381,218.518 79.5,219.5 Z"/></g>
<g><path style="opacity:1" fill="#1c6cb0" d="M 79.5,219.5 C 80.166,222.358 80.8326,225.358 81.5,228.5C 82.2592,225.843 82.9258,223.177 83.5,220.5C 87.1073,219.511 90.774,219.177 94.5,219.5C 94.5,229.167 94.5,238.833 94.5,248.5C 92.5,248.5 90.5,248.5 88.5,248.5C 88.6663,241.159 88.4997,233.826 88,226.5C 87.2086,227.745 86.7086,229.078 86.5,230.5C 85.5601,236.475 84.7267,242.475 84,248.5C 82.6439,249.38 81.1439,249.714 79.5,249.5C 78.2273,242.197 77.0607,234.863 76,227.5C 75.5004,234.492 75.3337,241.492 75.5,248.5C 73.5,248.5 71.5,248.5 69.5,248.5C 69.5,238.833 69.5,229.167 69.5,219.5C 72.8333,219.5 76.1667,219.5 79.5,219.5 Z"/></g>
<g><path style="opacity:1" fill="#6c9ec8" d="M 115.5,219.5 C 109.833,219.5 104.167,219.5 98.5,219.5C 98.5,229.167 98.5,238.833 98.5,248.5C 100.5,248.5 102.5,248.5 104.5,248.5C 102.393,249.468 100.059,249.802 97.5,249.5C 97.5,239.167 97.5,228.833 97.5,218.5C 103.69,218.177 109.69,218.51 115.5,219.5 Z"/></g>
<g><path style="opacity:1" fill="#1564a5" d="M 115.5,219.5 C 115.5,229.167 115.5,238.833 115.5,248.5C 113.5,248.5 111.5,248.5 109.5,248.5C 109.826,240.316 109.492,232.316 108.5,224.5C 107.167,224.5 105.833,224.5 104.5,224.5C 104.5,232.5 104.5,240.5 104.5,248.5C 102.5,248.5 100.5,248.5 98.5,248.5C 98.5,238.833 98.5,229.167 98.5,219.5C 104.167,219.5 109.833,219.5 115.5,219.5 Z"/></g>
<g><path style="opacity:1" fill="#24629b" d="M 136.5,229.5 C 137.209,230.404 138.209,230.737 139.5,230.5C 139.5,226.833 139.5,223.167 139.5,219.5C 141.5,219.5 143.5,219.5 145.5,219.5C 145.5,223.167 145.5,226.833 145.5,230.5C 146.822,230.67 147.989,230.337 149,229.5C 149.498,226.183 149.665,222.85 149.5,219.5C 151.833,219.5 154.167,219.5 156.5,219.5C 157.076,224.118 156.076,228.285 153.5,232C 154.333,232.833 155.167,233.667 156,234.5C 156.221,239.22 156.721,243.887 157.5,248.5C 154.966,249.777 152.466,249.777 150,248.5C 149.501,244.514 149.334,240.514 149.5,236.5C 148.432,235.566 147.099,235.232 145.5,235.5C 145.5,239.833 145.5,244.167 145.5,248.5C 143.5,248.5 141.5,248.5 139.5,248.5C 139.5,244.167 139.5,239.833 139.5,235.5C 137.901,235.232 136.568,235.566 135.5,236.5C 135.763,240.6 135.43,244.6 134.5,248.5C 132.5,248.5 130.5,248.5 128.5,248.5C 128.5,244.5 128.5,240.5 128.5,236.5C 128.859,234.629 129.859,233.129 131.5,232C 130.299,231.097 129.465,229.931 129,228.5C 128.502,225.518 128.335,222.518 128.5,219.5C 130.833,219.5 133.167,219.5 135.5,219.5C 135.187,223.042 135.521,226.375 136.5,229.5 Z"/></g>
<g><path style="opacity:1" fill="#92b2ce" d="M 145.5,219.5 C 143.5,219.5 141.5,219.5 139.5,219.5C 139.5,223.167 139.5,226.833 139.5,230.5C 138.209,230.737 137.209,230.404 136.5,229.5C 138.414,226.316 139.08,222.649 138.5,218.5C 141.059,218.198 143.393,218.532 145.5,219.5 Z"/></g>
<g><path style="opacity:1" fill="#2d6093" d="M 164.5,218.5 C 167.187,218.336 169.854,218.503 172.5,219C 174.667,219.833 176.167,221.333 177,223.5C 177.667,230.5 177.667,237.5 177,244.5C 174.024,248.939 169.857,250.439 164.5,249C 160.507,246.181 158.84,242.347 159.5,237.5C 161.833,237.5 164.167,237.5 166.5,237.5C 166.338,239.527 166.505,241.527 167,243.5C 168,244.833 169,244.833 170,243.5C 170.497,241.19 170.663,238.857 170.5,236.5C 168.833,236.5 167.167,236.5 165.5,236.5C 165.5,234.5 165.5,232.5 165.5,230.5C 167.167,230.5 168.833,230.5 170.5,230.5C 170.662,228.473 170.495,226.473 170,224.5C 169,223.167 168,223.167 167,224.5C 166.506,226.134 166.34,227.801 166.5,229.5C 164.167,229.5 161.833,229.5 159.5,229.5C 159.277,224.948 160.944,221.281 164.5,218.5 Z"/></g>
<g><path style="opacity:1" fill="#658aad" d="M 187.5,219.5 C 185.5,219.5 183.5,219.5 181.5,219.5C 181.5,229.167 181.5,238.833 181.5,248.5C 183.5,248.5 185.5,248.5 187.5,248.5C 185.393,249.468 183.059,249.802 180.5,249.5C 180.5,239.167 180.5,228.833 180.5,218.5C 183.059,218.198 185.393,218.532 187.5,219.5 Z"/></g>
<g><path style="opacity:1" fill="#285989" d="M 187.5,219.5 C 187.5,223.167 187.5,226.833 187.5,230.5C 189.124,230.64 190.29,229.973 191,228.5C 191.498,225.518 191.665,222.518 191.5,219.5C 193.833,219.5 196.167,219.5 198.5,219.5C 199.037,224.241 198.037,228.574 195.5,232.5C 196.522,233.354 197.355,234.354 198,235.5C 198.499,240.155 198.666,244.821 198.5,249.5C 196.208,249.756 194.041,249.423 192,248.5C 191.667,244.5 191.333,240.5 191,236.5C 189.989,235.663 188.822,235.33 187.5,235.5C 187.5,239.833 187.5,244.167 187.5,248.5C 185.5,248.5 183.5,248.5 181.5,248.5C 181.5,238.833 181.5,229.167 181.5,219.5C 183.5,219.5 185.5,219.5 187.5,219.5 Z"/></g>
<g><path style="opacity:1" fill="#2f557e" d="M 216.5,219.5 C 228.644,217.461 232.31,221.961 227.5,233C 230.318,236.338 231.151,240.171 230,244.5C 227.103,249.155 222.937,250.655 217.5,249C 214.38,246.592 213.047,243.426 213.5,239.5C 215.5,239.5 217.5,239.5 219.5,239.5C 218.756,242.95 220.09,244.616 223.5,244.5C 223.664,241.813 223.497,239.146 223,236.5C 221.989,235.663 220.822,235.33 219.5,235.5C 219.5,233.833 219.5,232.167 219.5,230.5C 223.068,230.241 224.401,228.241 223.5,224.5C 222.5,224.5 221.5,224.5 220.5,224.5C 220.5,225.833 220.5,227.167 220.5,228.5C 218.167,228.5 215.833,228.5 213.5,228.5C 213.129,224.997 214.129,221.997 216.5,219.5 Z"/></g>
<g><path style="opacity:1" fill="#4f89b9" d="M 108.5,224.5 C 109.492,232.316 109.826,240.316 109.5,248.5C 111.5,248.5 113.5,248.5 115.5,248.5C 113.393,249.468 111.059,249.802 108.5,249.5C 108.5,241.167 108.5,232.833 108.5,224.5 Z"/></g>
<g><path style="opacity:1" fill="#689eca" d="M 94.5,248.5 C 92.3926,249.468 90.0593,249.802 87.5,249.5C 87.8235,242.978 87.4902,236.645 86.5,230.5C 86.7086,229.078 87.2086,227.745 88,226.5C 88.4997,233.826 88.6663,241.159 88.5,248.5C 90.5,248.5 92.5,248.5 94.5,248.5 Z"/></g>
<g><path style="opacity:1" fill="#265482" d="M 210.5,233.5 C 210.5,235.167 210.5,236.833 210.5,238.5C 207.5,238.5 204.5,238.5 201.5,238.5C 201.5,236.833 201.5,235.167 201.5,233.5C 204.5,233.5 207.5,233.5 210.5,233.5 Z"/></g>
<g><path style="opacity:1" fill="#96b4cf" d="M 135.5,236.5 C 136.568,235.566 137.901,235.232 139.5,235.5C 139.5,239.833 139.5,244.167 139.5,248.5C 141.5,248.5 143.5,248.5 145.5,248.5C 145.5,244.167 145.5,239.833 145.5,235.5C 147.099,235.232 148.432,235.566 149.5,236.5C 148.5,236.5 147.5,236.5 146.5,236.5C 146.5,240.833 146.5,245.167 146.5,249.5C 143.833,249.5 141.167,249.5 138.5,249.5C 138.5,245.167 138.5,240.833 138.5,236.5C 137.5,236.5 136.5,236.5 135.5,236.5 Z"/></g>
<g><path style="opacity:1" fill="#708dac" d="M 210.5,233.5 C 211.461,235.265 211.795,237.265 211.5,239.5C 207.958,239.813 204.625,239.479 201.5,238.5C 204.5,238.5 207.5,238.5 210.5,238.5C 210.5,236.833 210.5,235.167 210.5,233.5 Z"/></g>
<g><path style="opacity:1" fill="#8eb1ce" d="M 128.5,236.5 C 128.5,240.5 128.5,244.5 128.5,248.5C 130.5,248.5 132.5,248.5 134.5,248.5C 132.393,249.468 130.059,249.802 127.5,249.5C 127.182,244.968 127.515,240.634 128.5,236.5 Z"/></g>
<g><path style="opacity:0.966" fill="#0c7639" d="M 234.5,259.5 C 234.182,264.032 234.515,268.366 235.5,272.5C 225.285,280.446 213.952,286.612 201.5,291C 190.272,294.806 178.939,297.639 167.5,299.5C 166.5,299.5 165.5,299.5 164.5,299.5C 164.5,295.5 164.5,291.5 164.5,287.5C 190.116,283.851 213.449,274.517 234.5,259.5 Z"/></g>
<g><path style="opacity:0.977" fill="#078940" d="M 51.5,247.5 C 71.3793,267.001 95.046,279.668 122.5,285.5C 122.763,289.6 122.43,293.6 121.5,297.5C 94.3869,292.442 70.7202,280.776 50.5,262.5C 50.1795,257.305 50.5128,252.305 51.5,247.5 Z"/></g>
<g><path style="opacity:0.975" fill="#0f813f" d="M 122.5,285.5 C 136.418,287.231 150.418,287.898 164.5,287.5C 164.5,291.5 164.5,295.5 164.5,299.5C 153.5,299.5 142.5,299.5 131.5,299.5C 128.344,298.566 125.011,297.899 121.5,297.5C 122.43,293.6 122.763,289.6 122.5,285.5 Z"/></g>
</svg>
